<?xml version="1.0" encoding="utf-8"?>
<!-- Generator: Adobe Illustrator 27.5.0, SVG Export Plug-In . SVG Version: 6.00 Build 0)  -->
<svg version="1.1" xmlns="http://www.w3.org/2000/svg" xmlns:xlink="http://www.w3.org/1999/xlink" x="0px" y="0px"
	 viewBox="0 0 500 500" style="enable-background:new 0 0 500 500;" xml:space="preserve">
<g id="Background_Complete">
	<rect x="416.779" y="398.494" style="fill:#EBEBEB;" width="33.122" height="0.25"/>
	<rect x="322.527" y="401.208" style="fill:#EBEBEB;" width="8.693" height="0.25"/>
	<rect x="396.586" y="389.208" style="fill:#EBEBEB;" width="19.192" height="0.25"/>
	<rect x="52.459" y="390.888" style="fill:#EBEBEB;" width="43.193" height="0.25"/>
	<rect x="104.556" y="390.888" style="fill:#EBEBEB;" width="6.333" height="0.25"/>
	<rect x="131.471" y="395.111" style="fill:#EBEBEB;" width="93.676" height="0.25"/>
	<g>
		<path style="fill:#EBEBEB;" d="M238.401,337.8H45.302c-3.147,0-5.708-2.561-5.708-5.708V60.66c0-3.147,2.561-5.708,5.708-5.708
			h193.099c3.146,0,5.707,2.561,5.707,5.708v271.432C244.108,335.239,241.547,337.8,238.401,337.8z M45.302,55.203
			c-3.01,0-5.458,2.448-5.458,5.458v271.432c0,3.01,2.448,5.458,5.458,5.458h193.099c3.009,0,5.457-2.448,5.457-5.458V60.66
			c0-3.009-2.448-5.458-5.457-5.458H45.302z"/>
		<path style="fill:#EBEBEB;" d="M454.698,337.8H261.599c-3.146,0-5.707-2.561-5.707-5.708V60.66c0-3.147,2.561-5.708,5.707-5.708
			h193.099c3.148,0,5.708,2.561,5.708,5.708v271.432C460.406,335.239,457.845,337.8,454.698,337.8z M261.599,55.203
			c-3.009,0-5.457,2.448-5.457,5.458v271.432c0,3.01,2.448,5.458,5.457,5.458h193.099c3.01,0,5.458-2.448,5.458-5.458V60.66
			c0-3.009-2.448-5.458-5.458-5.458H261.599z"/>
	</g>
	<rect y="382.398" style="fill:#EBEBEB;" width="500" height="0.25"/>
	<g>
		<g>
			<g>
				<rect x="132.665" y="71.373" style="fill:#FAFAFA;" width="71.254" height="241.711"/>
				<rect x="132.524" y="71.373" style="opacity:0.1;fill:#FFFFFF;" width="71.254" height="241.711"/>
				<g style="opacity:0.3;">
					<polygon style="fill:#FFFFFF;" points="196.807,71.373 174.089,71.373 149.237,313.084 171.954,313.084 					"/>
				</g>
				<rect x="132.069" y="68.308" style="fill:#E0E0E0;" width="72.447" height="6.13"/>
				<rect x="132.069" y="310.97" style="fill:#EBEBEB;" width="72.447" height="6.13"/>
				<g>
					<path style="fill:#EBEBEB;" d="M207.332,322.325H128.79V62.321h78.542V322.325z M134.777,316.338h66.567V68.308h-66.567
						V316.338z"/>
				</g>
			</g>
			<g>
				<rect x="55.054" y="71.373" style="fill:#FAFAFA;" width="71.254" height="241.711"/>
				<g>
					<rect x="60.414" y="173.73" style="fill:#E6E6E6;" width="55.147" height="46.278"/>
					<rect x="63.945" y="179.498" style="fill:#FAFAFA;" width="7.061" height="7.061"/>
					<rect x="77.62" y="179.498" style="fill:#FAFAFA;" width="7.06" height="7.061"/>
					<rect x="91.296" y="179.498" style="fill:#FAFAFA;" width="7.06" height="7.061"/>
					<rect x="104.971" y="179.498" style="fill:#FAFAFA;" width="7.061" height="7.061"/>
					<rect x="63.945" y="192.326" style="fill:#FAFAFA;" width="7.061" height="7.061"/>
					<rect x="77.62" y="192.326" style="fill:#FAFAFA;" width="7.06" height="7.061"/>
					<rect x="91.296" y="192.326" style="fill:#FAFAFA;" width="7.06" height="7.061"/>
					<rect x="104.971" y="192.326" style="fill:#E6E6E6;" width="7.061" height="7.061"/>
					<rect x="63.945" y="205.155" style="fill:#E6E6E6;" width="7.061" height="7.06"/>
					<rect x="77.62" y="205.155" style="fill:#E6E6E6;" width="7.06" height="7.06"/>
					<rect x="91.296" y="205.155" style="fill:#FAFAFA;" width="7.06" height="7.06"/>
					<rect x="104.971" y="205.155" style="fill:#E6E6E6;" width="7.061" height="7.06"/>
				</g>
				<g>
					<rect x="60.414" y="219.427" style="fill:#E6E6E6;" width="55.147" height="46.278"/>
					<rect x="63.945" y="225.195" style="fill:#FAFAFA;" width="7.061" height="7.061"/>
					<rect x="77.62" y="225.195" style="fill:#FAFAFA;" width="7.06" height="7.061"/>
					<rect x="91.296" y="225.195" style="fill:#FAFAFA;" width="7.06" height="7.061"/>
					<rect x="104.971" y="225.195" style="fill:#FAFAFA;" width="7.061" height="7.061"/>
					<rect x="63.945" y="238.023" style="fill:#FAFAFA;" width="7.061" height="7.061"/>
					<rect x="77.62" y="238.023" style="fill:#FAFAFA;" width="7.06" height="7.061"/>
					<rect x="91.296" y="238.023" style="fill:#FAFAFA;" width="7.06" height="7.061"/>
					<rect x="104.971" y="238.023" style="fill:#E6E6E6;" width="7.061" height="7.061"/>
					<rect x="63.945" y="250.851" style="fill:#E6E6E6;" width="7.061" height="7.061"/>
					<rect x="77.62" y="250.851" style="fill:#E6E6E6;" width="7.06" height="7.061"/>
					<rect x="91.296" y="250.851" style="fill:#FAFAFA;" width="7.06" height="7.061"/>
					<rect x="104.971" y="250.851" style="fill:#E6E6E6;" width="7.061" height="7.061"/>
				</g>
				<g>
					<rect x="60.414" y="265.124" style="fill:#E6E6E6;" width="55.147" height="46.278"/>
					<rect x="63.945" y="270.892" style="fill:#FAFAFA;" width="7.061" height="7.061"/>
					<rect x="77.62" y="270.892" style="fill:#FAFAFA;" width="7.06" height="7.061"/>
					<rect x="91.296" y="270.892" style="fill:#FAFAFA;" width="7.06" height="7.061"/>
					<rect x="104.971" y="270.892" style="fill:#FAFAFA;" width="7.061" height="7.061"/>
					<rect x="63.945" y="283.72" style="fill:#FAFAFA;" width="7.061" height="7.061"/>
					<rect x="77.62" y="283.72" style="fill:#FAFAFA;" width="7.06" height="7.061"/>
					<rect x="91.296" y="283.72" style="fill:#FAFAFA;" width="7.06" height="7.061"/>
					<rect x="104.971" y="283.72" style="fill:#E6E6E6;" width="7.061" height="7.061"/>
					<rect x="63.945" y="296.548" style="fill:#E6E6E6;" width="7.061" height="7.061"/>
					<rect x="77.62" y="296.548" style="fill:#E6E6E6;" width="7.06" height="7.061"/>
					<rect x="91.296" y="296.548" style="fill:#FAFAFA;" width="7.06" height="7.061"/>
					<rect x="104.971" y="296.548" style="fill:#E6E6E6;" width="7.061" height="7.061"/>
				</g>
				<rect x="54.107" y="71.373" style="opacity:0.1;fill:#FFFFFF;" width="71.254" height="241.711"/>
				<g style="opacity:0.3;">
					<polygon style="fill:#FFFFFF;" points="119.196,71.373 96.479,71.373 71.626,313.084 94.343,313.084 					"/>
				</g>
				<rect x="54.458" y="68.308" style="fill:#E0E0E0;" width="72.447" height="6.13"/>
				<rect x="54.458" y="310.97" style="fill:#EBEBEB;" width="72.447" height="6.13"/>
				<g>
					<path style="fill:#EBEBEB;" d="M129.721,322.325H51.179V62.321h78.542V322.325z M57.167,316.338h66.567V68.308H57.167V316.338z
						"/>
				</g>
			</g>
		</g>
		<g>
			<g>
				<g>
					<g>
						<g>
							<path style="fill:#E0E0E0;" d="M236.372,354.612l-0.801,0.099c-0.05-0.407-4.911-41.088,5.117-74.332
								c9.967-33.041,3.104-54.095,3.033-54.303l0.765-0.259c0.071,0.212,7.015,21.51-3.026,54.796
								C231.483,313.69,236.322,354.206,236.372,354.612z"/>
						</g>
						<g>
							<g>
								<path style="fill:#E0E0E0;" d="M245.15,230.606c-1.73-2.07-4.129-3.549-6.756-4.165l0.184-0.786
									c2.796,0.655,5.35,2.23,7.192,4.434L245.15,230.606z"/>
							</g>
						</g>
						<g>
							
								<rect x="246.299" y="234.585" transform="matrix(0.8706 -0.4919 0.4919 0.8706 -83.565 152.2185)" style="fill:#E0E0E0;" width="2.653" height="0.807"/>
						</g>
						<g>
							<path style="fill:#E0E0E0;" d="M244.282,252.727c-1.985-4.554-5.77-8.225-10.381-10.072l0.3-0.749
								c4.807,1.926,8.751,5.752,10.822,10.499L244.282,252.727z"/>
						</g>
						<g>
							<path style="fill:#E0E0E0;" d="M242.117,278.143l-0.807,0.01c-0.04-3.283-1.601-6.458-4.177-8.494l0.501-0.633
								C240.398,271.211,242.074,274.619,242.117,278.143z"/>
						</g>
						<g>
							<path style="fill:#E0E0E0;" d="M240.316,284.641l-0.752-0.296c0.809-2.055,2.526-3.749,4.591-4.531l0.286,0.755
								C242.586,281.272,241.044,282.794,240.316,284.641z"/>
						</g>
						<g>
							<path style="fill:#E0E0E0;" d="M235.085,325.873l-0.621-0.515c0.982-1.185,1.725-5.694,2.124-8.117
								c0.095-0.579,0.177-1.073,0.245-1.43l0.793,0.15c-0.067,0.352-0.147,0.839-0.241,1.41
								C236.788,320.989,236.12,324.625,235.085,325.873z"/>
						</g>
						<g>
							<path style="fill:#E0E0E0;" d="M234.618,338.821c-1.042-3.189-4.355-5.476-7.706-5.32l-0.038-0.806
								c3.701-0.173,7.36,2.353,8.511,5.875L234.618,338.821z"/>
						</g>
						<g>
							
								<rect x="233.979" y="350.3" transform="matrix(0.6663 -0.7456 0.7456 0.6663 -182.007 294.662)" style="fill:#E0E0E0;" width="8.538" height="0.807"/>
						</g>
					</g>
					<g>
						<path style="fill:#F0F0F0;" d="M244.809,305.749c1.289,4.173-7.703,12.117-7.703,12.117s-11.906-1.489-13.195-5.661
							c-1.289-4.173,1.726-11.001,7.497-12.783C237.179,297.638,243.52,301.576,244.809,305.749z"/>
						<path style="fill:#EBEBEB;" d="M254.788,255.108c-1.141,4.432-9.657,7.579-9.657,7.579s-5.937-6.869-4.796-11.3
							c1.141-4.432,5.848-9.315,9.839-8.287C254.165,244.127,255.929,250.676,254.788,255.108z"/>
						<path style="fill:#F5F5F5;" d="M220.616,321.333c5.347,2.082,8.625,11.539,8.625,11.539s-8.81,4.751-14.157,2.669
							c-5.347-2.082-11.007-7.949-9.479-11.872C207.133,319.746,215.269,319.251,220.616,321.333z"/>
						<path style="fill:#E6E6E6;" d="M232.34,269.302c1.13,0.839,2.296,1.695,3.654,2.064c1.358,0.369,2.974,0.143,3.897-0.919
							c1.144-1.317,0.837-3.358,0.117-4.947c-1.428-3.148-6.698-8.491-10.745-6.958C223.42,260.754,229.735,267.369,232.34,269.302z
							"/>
						<path style="fill:#EBEBEB;" d="M244.298,277.325c-0.766,0.95-1.58,2.147-1.161,3.294c0.372,1.017,1.621,1.483,2.692,1.321
							c1.071-0.162,2.002-0.797,2.891-1.414c2.063-1.432,6.291-4.437,3.592-7.248C249.507,270.357,245.914,275.323,244.298,277.325z
							"/>
						<path style="fill:#E0E0E0;" d="M227.042,237.326c-0.883,0.097-1.777,0.688-1.927,1.563c-0.176,1.023,0.673,1.918,1.495,2.552
							c2.048,1.578,8.204,5.838,9.578,1.729C237.486,239.287,229.763,237.025,227.042,237.326z"/>
						<g>
							<path style="fill:#E6E6E6;" d="M238.389,223.807c-1.27,0.121-2.537-0.34-3.81-0.259c-1.273,0.081-2.686,1.105-2.403,2.349
								c0.262,1.15,1.691,1.535,2.868,1.609c2.008,0.126,4.032-0.014,6.003-0.415c0.458-0.093,0.956-0.229,1.218-0.615
								c0.515-0.758-0.304-1.774-1.18-2.043c-0.876-0.269-1.865-0.179-2.66-0.634L238.389,223.807z"/>
						</g>
						<g>
							<path style="fill:#F0F0F0;" d="M250.801,232.547c1.275,0.037,2.509-0.507,3.785-0.51c1.276-0.004,2.753,0.925,2.553,2.185
								c-0.185,1.164-1.586,1.643-2.755,1.794c-1.995,0.258-4.024,0.253-6.018-0.018c-0.463-0.063-0.969-0.165-1.256-0.533
								c-0.564-0.723,0.186-1.79,1.043-2.116c0.856-0.326,1.849-0.302,2.613-0.808L250.801,232.547z"/>
						</g>
						<g>
							<path style="fill:#F0F0F0;" d="M249.545,326.508c0.315-0.266,0.672-0.539,1.084-0.536c0.547,0.004,0.982,0.52,1.083,1.057
								c0.102,0.537-0.049,1.087-0.205,1.61c-0.864,2.892-10.57,23.838-12.802,20.077c-1.32-2.224,1.924-9.589,2.881-11.673
								C243.436,333.013,246.154,329.373,249.545,326.508z"/>
						</g>
					</g>
				</g>
				<g>
					<path style="fill:#E6E6E6;" d="M243.74,224.604c0.77-1.729,1.604-3.538,3.134-4.651c1.531-1.113,3.983-1.197,5.098,0.333
						c1.246,1.71,0,4.309-1.91,5.221c-1.91,0.912-4.147,0.637-6.243,0.343c-0.017-0.311-0.034-0.622-0.051-0.934L243.74,224.604z"/>
				</g>
			</g>
			<g>
				<path style="fill:#F0F0F0;" d="M250.522,382.555L250.522,382.555c-10.323,1.76-21.079,1.76-31.401,0l0,0l-12.215-36.042h55.83
					L250.522,382.555z"/>
			</g>
		</g>
		<g>
			<g>
				<g>
					<path style="fill:#EBEBEB;" d="M440.57,190.212c-0.197-0.024-0.416-0.093-0.634-0.161c-4.107-1.365-10.348-7.776-15.662-16.501
						c-5.314-8.747-8.131-17.246-7.445-21.536l0-0.022c0.142-0.853,0.413-1.508,0.835-1.986c0.022-0.044,0.045-0.065,0.067-0.087
						c0.156-0.174,0.311-0.326,0.51-0.433c0.221-0.129,0.441-0.214,0.661-0.278c0.616-0.146,1.339-0.094,2.147,0.179
						c0.765,0.229,1.615,0.655,2.508,1.236c0.588,0.38,1.196,0.825,1.826,1.337c0.348,0.29,0.717,0.601,1.086,0.934
						c3.299,2.955,6.995,7.538,10.352,13.039c3.335,5.478,5.684,10.835,6.796,15.147c0.126,0.484,0.23,0.968,0.334,1.429
						c0.187,0.879,0.309,1.67,0.367,2.417c0.097,1.054,0.064,1.975-0.098,2.74c-0.164,0.875-0.479,1.551-0.966,1.984
						c-0.111,0.13-0.244,0.239-0.398,0.325c-0.133,0.086-0.287,0.15-0.441,0.192C441.884,190.359,441.27,190.374,440.57,190.212z"/>
					<path style="fill:#EBEBEB;" d="M440.57,190.212l-0.344-0.552l-11.489-18.908c-0.301-0.508-0.602-0.994-0.882-1.48
						l-10.736-17.649l0-0.022c0.095-0.635,0.277-1.159,0.545-1.595c0.09-0.174,0.223-0.327,0.356-0.478l1.171-0.71l3.512-2.13
						l1.592,2.606l0.28,0.464l1.097,1.811l0.796,1.325l17.147,28.186l0.624,1.038l1.205,1.988l0.28,0.464l1.592,2.606l-4.064,2.475
						l-0.839,0.516C441.884,190.359,441.27,190.374,440.57,190.212z"/>
				</g>
				<g>
					<path style="fill:#EBEBEB;" d="M422.71,146.693c-3.464,2.104-0.767,12.876,6.027,24.059
						c6.793,11.182,15.109,18.541,18.574,16.436c3.464-2.105,0.766-12.876-6.027-24.058
						C434.49,151.947,426.174,144.588,422.71,146.693z"/>
					<path style="fill:#FAFAFA;" d="M422.71,146.693c-3.464,2.104-0.767,12.876,6.027,24.059
						c6.793,11.182,15.109,18.541,18.574,16.436c3.464-2.105,0.766-12.876-6.027-24.058
						C434.49,151.947,426.174,144.588,422.71,146.693z"/>
				</g>
				<g>
					<path style="fill:#EBEBEB;" d="M424.515,149.121c-0.203,0.123-0.401,0.343-0.49,0.562c2.882,0.003,8.924,6.393,14.298,15.24
						c5.39,8.872,8.276,17.179,6.935,19.714c0.236,0.022,0.522-0.053,0.725-0.176c2.346-1.426-0.514-10.509-6.448-20.275
						C433.619,154.445,426.861,147.695,424.515,149.121z"/>
					<path style="opacity:0.4;fill:#EBEBEB;" d="M424.515,149.121c-0.203,0.123-0.401,0.343-0.49,0.562
						c2.882,0.003,8.924,6.393,14.298,15.24c5.39,8.872,8.276,17.179,6.935,19.714c0.236,0.022,0.522-0.053,0.725-0.176
						c2.346-1.426-0.514-10.509-6.448-20.275C433.619,154.445,426.861,147.695,424.515,149.121z"/>
				</g>
			</g>
			<g>
				<g>
					<path style="fill:#EBEBEB;" d="M381.044,93.14c-0.04,0.13-0.112,0.27-0.185,0.41c-1.414,2.615-6.497,6.069-13.034,8.621
						c-6.552,2.549-12.637,3.438-15.457,2.46l-0.015-0.003c-0.56-0.198-0.971-0.459-1.243-0.802
						c-0.027-0.02-0.039-0.038-0.051-0.056c-0.099-0.126-0.183-0.249-0.232-0.396c-0.061-0.165-0.092-0.324-0.109-0.48
						c-0.025-0.434,0.097-0.917,0.378-1.431c0.246-0.49,0.636-1.014,1.136-1.548c0.327-0.352,0.701-0.711,1.123-1.076
						c0.237-0.2,0.492-0.413,0.762-0.623c2.393-1.878,5.935-3.83,10.057-5.443c4.104-1.601,8.009-2.549,11.058-2.785
						c0.342-0.027,0.682-0.04,1.007-0.055c0.617-0.022,1.167-0.01,1.679,0.041c0.724,0.06,1.343,0.192,1.842,0.394
						c0.572,0.215,0.992,0.509,1.227,0.891c0.075,0.091,0.132,0.194,0.172,0.308c0.042,0.1,0.067,0.212,0.077,0.321
						C381.301,92.269,381.237,92.686,381.044,93.14z"/>
					<path style="fill:#EBEBEB;" d="M381.044,93.14l-0.415,0.167l-14.163,5.51c-0.379,0.143-0.744,0.288-1.106,0.419l-13.221,5.152
						l-0.015-0.003c-0.418-0.14-0.751-0.326-1.013-0.559c-0.107-0.081-0.194-0.19-0.281-0.298l-0.34-0.877l-1.021-2.63l1.953-0.765
						l0.347-0.134l1.356-0.525l0.992-0.38l21.115-8.228l0.777-0.298l1.488-0.577l0.347-0.134l1.953-0.765l1.188,3.045l0.249,0.63
						C381.301,92.269,381.237,92.686,381.044,93.14z"/>
				</g>
				<g>
					<path style="fill:#EBEBEB;" d="M349.472,100.017c1.009,2.595,8.618,2.058,16.994-1.2c8.376-3.258,14.348-8.003,13.338-10.598
						c-1.009-2.595-8.618-2.058-16.993,1.2C354.435,92.677,348.463,97.422,349.472,100.017z"/>
					<path style="fill:#FAFAFA;" d="M349.472,100.017c1.009,2.595,8.618,2.058,16.994-1.2c8.376-3.258,14.348-8.003,13.338-10.598
						c-1.009-2.595-8.618-2.058-16.993,1.2C354.435,92.677,348.463,97.422,349.472,100.017z"/>
				</g>
				<g>
					<path style="fill:#EBEBEB;" d="M351.33,99.086c0.059,0.152,0.184,0.312,0.321,0.398c0.347-1.949,5.392-5.271,12.018-7.849
						c6.646-2.585,12.609-3.544,14.164-2.334c0.043-0.157,0.027-0.359-0.032-0.511c-0.684-1.757-7.17-0.909-14.485,1.937
						C356.021,93.564,350.647,97.328,351.33,99.086z"/>
					<path style="opacity:0.4;fill:#EBEBEB;" d="M351.33,99.086c0.059,0.152,0.184,0.312,0.321,0.398
						c0.347-1.949,5.392-5.271,12.018-7.849c6.646-2.585,12.609-3.544,14.164-2.334c0.043-0.157,0.027-0.359-0.032-0.511
						c-0.684-1.757-7.17-0.909-14.485,1.937C356.021,93.564,350.647,97.328,351.33,99.086z"/>
				</g>
				<g>
					<path style="fill:#FAFAFA;" d="M351.652,99.484c1.573,1.202,7.537,0.243,14.163-2.334c6.645-2.584,11.69-5.907,12.019-7.848
						c-1.555-1.21-7.518-0.251-14.164,2.334C357.043,94.213,351.999,97.535,351.652,99.484z"/>
				</g>
			</g>
			<g>
				<g>
					<g>
						<path style="fill:#EBEBEB;" d="M382.194,231.164c-6.549-11.054-2.897-25.323,8.157-31.872
							c11.054-6.549,25.324-2.897,31.872,8.157c6.549,11.054,2.897,25.323-8.157,31.872
							C403.012,245.87,388.742,242.217,382.194,231.164z"/>
					</g>
					<path style="fill:#EBEBEB;" d="M379.792,232.587c-6.548-11.053-2.896-25.323,8.158-31.872
						c11.054-6.549,25.323-2.896,31.872,8.157c6.549,11.054,2.896,25.323-8.157,31.872
						C400.61,247.293,386.341,243.64,379.792,232.587z"/>
					<path style="fill:#FAFAFA;" d="M379.792,232.587c-6.548-11.053-2.896-25.323,8.158-31.872
						c11.054-6.549,25.323-2.896,31.872,8.157c6.549,11.054,2.896,25.323-8.157,31.872
						C400.61,247.293,386.341,243.64,379.792,232.587z"/>
					<path style="fill:#EBEBEB;" d="M408.674,235.707c-0.557,0.335-1.135,0.631-1.733,0.887c-7.976,3.609-17.547,0.729-22.112-7.002
						c-4.896-8.26-2.174-18.945,6.114-23.845c1.22-0.716,2.507-1.287,3.81-1.675c7.482-2.301,15.855,0.749,20.035,7.789
						C419.684,220.123,416.962,230.807,408.674,235.707z"/>
				</g>
				<g>
					<path style="fill:#FAFAFA;" d="M391.341,221.439c-2.541-2.967-1.577-6.531,2.314-9.306l-1.554-2.78l2.49-1.475l1.555,2.78
						c2.537-1.201,5.201-1.771,7.197-1.674l0.702,3.755c-2.065-0.089-4.211,0.342-6.063,1.203l2.382,4.273
						c2.85-0.747,6.097-1.426,8.409,1.275c2.541,2.967,1.545,6.583-2.456,9.36l1.554,2.779l-2.49,1.475l-1.574-2.803
						c-1.901,0.893-3.902,1.404-5.67,1.443l-0.851-3.667c1.625,0.012,3.245-0.374,4.703-1.038l-2.492-4.443
						C396.69,223.349,393.538,224.006,391.341,221.439z M402.397,221.819l2.03,3.641c1.208-1.086,1.414-2.249,0.712-3.112
						C404.546,221.655,403.58,221.622,402.397,221.819z M394.878,218.47c0.554,0.647,1.471,0.71,2.59,0.484l-1.945-3.455
						C394.39,216.541,394.151,217.622,394.878,218.47z"/>
				</g>
			</g>
			<g>
				<g>
					<path style="fill:#EBEBEB;" d="M428.998,104.388c3.981,8.102-0.823,18.616-10.729,23.483
						c-9.906,4.867-21.164,2.245-25.144-5.858c-3.981-8.102,0.822-18.616,10.728-23.483
						C413.759,93.663,425.017,96.286,428.998,104.388z"/>
					<path style="fill:#EBEBEB;" d="M427.413,101.163c3.98,8.102-0.823,18.616-10.729,23.483
						c-9.906,4.867-21.163,2.245-25.144-5.858c-3.981-8.102,0.823-18.615,10.729-23.483
						C412.174,90.438,423.432,93.061,427.413,101.163z"/>
					<path style="fill:#FAFAFA;" d="M427.413,101.163c3.98,8.102-0.823,18.616-10.729,23.483
						c-9.906,4.867-21.163,2.245-25.144-5.858c-3.981-8.102,0.823-18.615,10.729-23.483
						C412.174,90.438,423.432,93.061,427.413,101.163z"/>
					<path style="fill:#EBEBEB;" d="M422.794,103.11c0.19,0.387,0.35,0.788,0.495,1.159c-0.015,0.044,0.029,0.059,0.044,0.089
						c1.943,5.908-1.675,12.961-8.57,16.348c-6.925,3.402-14.718,1.956-18.207-3.192c-0.015-0.03,0.001-0.074-0.044-0.089
						c-0.205-0.342-0.425-0.714-0.614-1.1c-2.979-6.063,0.63-13.96,8.06-17.611C411.358,95.078,419.815,97.048,422.794,103.11z"/>
				</g>
				<g>
					<path style="fill:#FAFAFA;" d="M414.701,115.47c-1.167,3.035-4.15,3.958-7.709,2.548l-1.419,2.284l-2.057-1.035l1.418-2.284
						c-1.876-1.189-3.341-2.743-4.056-4.138l2.467-2.137c0.748,1.439,1.907,2.703,3.266,3.578l2.183-3.505
						c-1.667-1.602-3.442-3.502-2.379-6.265c1.167-3.035,4.2-3.96,7.804-2.475l1.418-2.283l2.058,1.035l-1.428,2.307
						c1.4,0.894,2.562,2.025,3.286,3.206l-2.344,2.199c-0.631-1.107-1.551-2.035-2.61-2.73l-2.265,3.655
						C413.99,110.998,415.711,112.845,414.701,115.47z M410.625,107.806l1.861-2.986c-1.269-0.339-2.2,0.036-2.554,0.894
						C409.66,106.422,410.016,107.091,410.625,107.806z M411.14,114.385c0.254-0.662-0.061-1.312-0.667-1.97l-1.758,2.847
						C409.922,115.57,410.806,115.254,411.14,114.385z"/>
				</g>
			</g>
			<g>
				<g>
					<path style="fill:#EBEBEB;" d="M325.531,102.433c-3.858,9.957-18.304,12.486-31.673,4.12
						c-13.369-8.366-17.483-22.51-10.296-30.383c6.204-6.795,18.934-6.467,29.161-0.067
						C322.951,82.504,328.861,93.84,325.531,102.433z"/>
					<path style="fill:#EBEBEB;" d="M326.913,98.866c-3.634,9.377-17.501,11.548-30.433,3.456
						c-12.932-8.093-17.112-21.557-10.342-28.972c5.868-6.426,18.162-5.981,28.132,0.258
						C324.24,79.847,330.062,90.739,326.913,98.866z"/>
					<path style="fill:#FAFAFA;" d="M326.913,98.866c-3.634,9.377-17.501,11.548-30.433,3.456
						c-12.932-8.093-17.112-21.557-10.342-28.972c5.868-6.426,18.162-5.981,28.132,0.258
						C324.24,79.847,330.062,90.739,326.913,98.866z"/>
					<path style="fill:#EBEBEB;" d="M321.927,95.399c-0.178,0.404-0.391,0.79-0.592,1.146c-0.048,0.01-0.028,0.063-0.042,0.095
						c-3.664,5.603-13.166,6.305-21.822,0.888c-8.694-5.441-12.259-14.321-8.872-20.097c0.022-0.026,0.078-0.031,0.066-0.079
						c0.229-0.338,0.479-0.701,0.762-1.04c4.188-5.03,13.534-4.858,21.216-0.05C320.295,81.05,324.571,89.403,321.927,95.399z"/>
				</g>
				<g>
					<path style="fill:#FAFAFA;" d="M312.997,88.053c1.762,2.733,0.749,5.686-2.49,7.728l1.007,2.492l-2.05,1.051l-1.007-2.493
						c-2.067,0.814-4.186,1.08-5.734,0.834l-0.271-3.252c1.604,0.245,3.308,0.054,4.816-0.526l-1.542-3.83
						c-2.277,0.402-4.858,0.714-6.463-1.774c-1.762-2.733-0.72-5.728,2.605-7.762l-1.007-2.492l2.05-1.051l1.021,2.514
						c1.548-0.603,3.146-0.874,4.527-0.762l0.393,3.189c-1.266-0.144-2.558,0.052-3.744,0.497l1.615,3.984
						C308.967,85.989,311.473,85.689,312.997,88.053z M304.404,86.823l-1.314-3.264c-1.022,0.825-1.268,1.798-0.784,2.59
						C302.717,86.786,303.467,86.893,304.404,86.823z M310.021,90.289c-0.384-0.596-1.095-0.725-1.984-0.624l1.262,3.099
						C310.259,91.97,310.525,91.07,310.021,90.289z"/>
				</g>
			</g>
		</g>
	</g>
</g>
<g id="Background_Simple" style="display:none;">
	<g style="display:inline;">
		<path style="fill:#407BFF;" d="M423.399,291.312c11.457-11.763,18.415-28.622,21.024-45.359
			c2.609-16.737-1.869-35.252-14.128-44.706c-11.794-9.095-28.206-8.217-42.337-2.93c-14.131,5.287-26.918,14.43-40.513,21.361
			c-25.324,12.913-55.366,17.742-79.648,4.948c-22.835-12.032-36.814-37.088-53.217-58.158
			c-15.956-20.496-35.696-38.333-59.449-46.018c-23.753-7.684-51.956-3.787-71.401,14.679
			c-18.391,17.465-26.415,44.896-28.361,71.035c-2.623,35.234,4.768,71.732,24.762,98.193
			c16.024,21.207,39.157,34.836,63.559,42.241c24.402,7.405,108.743,22.206,166.556,3.636
			C356.068,335.515,408.976,306.12,423.399,291.312z"/>
		<path style="opacity:0.9;fill:#FFFFFF;" d="M423.399,291.312c11.457-11.763,18.415-28.622,21.024-45.359
			c2.609-16.737-1.869-35.252-14.128-44.706c-11.794-9.095-28.206-8.217-42.337-2.93c-14.131,5.287-26.918,14.43-40.513,21.361
			c-25.324,12.913-55.366,17.742-79.648,4.948c-22.835-12.032-36.814-37.088-53.217-58.158
			c-15.956-20.496-35.696-38.333-59.449-46.018c-23.753-7.684-51.956-3.787-71.401,14.679
			c-18.391,17.465-26.415,44.896-28.361,71.035c-2.623,35.234,4.768,71.732,24.762,98.193
			c16.024,21.207,39.157,34.836,63.559,42.241c24.402,7.405,108.743,22.206,166.556,3.636
			C356.068,335.515,408.976,306.12,423.399,291.312z"/>
	</g>
</g>
<g id="Shadow">
	<ellipse id="_x3C_Path_x3E__359_" style="fill:#F5F5F5;" cx="250" cy="415.693" rx="193.889" ry="11.323"/>
</g>
<g id="Character">
	<g>
		<g>
			<g>
				<path style="fill:#263238;" d="M228.336,415.815L228.336,415.815c-1.784,0-3.231-1.447-3.231-3.231v-3.231h6.461v3.231
					C231.567,414.368,230.12,415.815,228.336,415.815z"/>
				<path style="fill:#263238;" d="M342.283,415.815L342.283,415.815c-1.784,0-3.231-1.447-3.231-3.231v-3.231h6.461v3.231
					C345.513,414.368,344.067,415.815,342.283,415.815z"/>
			</g>
			<g>
				<path style="fill:#263238;" d="M401.123,415.815L401.123,415.815c-1.784,0-3.231-1.447-3.231-3.231v-3.231h6.461v3.231
					C404.354,414.368,402.908,415.815,401.123,415.815z"/>
			</g>
			<g>
				<g>
					<g>
						<rect x="219.451" y="371.875" style="fill:#407BFF;" width="186.416" height="40.272"/>
						<rect x="219.451" y="371.875" style="opacity:0.3;fill:#FFFFFF;" width="186.416" height="40.272"/>
					</g>
					<rect x="347.93" y="371.875" style="opacity:0.2;" width="57.755" height="40.277"/>
				</g>
				<g>
					<g>
						<g>
							<path style="fill:#407BFF;" d="M417.345,271.641l-9.137,82.206c-0.608,5.771-6.323,10.234-13.254,10.437
								c-0.163,0.015-0.336,0.015-0.508,0.015H279.223c-8.102,0-14.47-5.756-13.762-12.443l9.128-82.206
								c0.626-5.914,6.604-10.452,13.771-10.452h115.214c0.181,0,0.363,0,0.545,0.015
								C411.965,259.46,418.034,265.103,417.345,271.641z"/>
							<path style="opacity:0.5;fill:#FFFFFF;" d="M417.345,271.641l-9.137,82.206c-0.608,5.771-6.323,10.234-13.254,10.437
								c-0.163,0.015-0.336,0.015-0.508,0.015H279.223c-8.102,0-14.47-5.756-13.762-12.443l9.128-82.206
								c0.626-5.914,6.604-10.452,13.771-10.452h115.214c0.181,0,0.363,0,0.545,0.015
								C411.965,259.46,418.034,265.103,417.345,271.641z"/>
						</g>
						<g>
							<path style="fill:#407BFF;" d="M423.677,271.641l-9.137,82.206c-0.608,5.771-6.323,10.234-13.254,10.437
								c-7.848-0.248-13.917-5.891-13.227-12.428l9.137-82.206c0.608-5.771,6.314-10.234,13.255-10.437
								C418.297,259.46,424.366,265.103,423.677,271.641z"/>
							<path style="opacity:0.3;fill:#FFFFFF;" d="M423.677,271.641l-9.137,82.206c-0.608,5.771-6.323,10.234-13.254,10.437
								c-7.848-0.248-13.917-5.891-13.227-12.428l9.137-82.206c0.608-5.771,6.314-10.234,13.255-10.437
								C418.297,259.46,424.366,265.103,423.677,271.641z"/>
						</g>
						<g>
							<path style="fill:#407BFF;" d="M400.593,380.492h-80.224c-8.057,0-14.588-6.531-14.588-14.588v-9.364
								c0-8.057,6.531-14.588,14.588-14.588h80.224c8.057,0,14.588,6.531,14.588,14.588v9.364
								C415.181,373.961,408.649,380.492,400.593,380.492z"/>
							<path style="opacity:0.3;fill:#FFFFFF;" d="M400.593,380.492h-80.224c-8.057,0-14.588-6.531-14.588-14.588v-9.364
								c0-8.057,6.531-14.588,14.588-14.588h80.224c8.057,0,14.588,6.531,14.588,14.588v9.364
								C415.181,373.961,408.649,380.492,400.593,380.492z"/>
						</g>
						<g>
							<path style="fill:#407BFF;" d="M348.943,380.492h-124.88c-7.89,0-14.287-6.396-14.287-14.287v-9.967
								c0-7.89,6.396-14.287,14.287-14.287h124.88c7.89,0,14.287,6.396,14.287,14.287v9.967
								C363.229,374.096,356.833,380.492,348.943,380.492z"/>
							<path style="opacity:0.6;fill:#FFFFFF;" d="M348.943,380.492h-124.88c-7.89,0-14.287-6.396-14.287-14.287v-9.967
								c0-7.89,6.396-14.287,14.287-14.287h124.88c7.89,0,14.287,6.396,14.287,14.287v9.967
								C363.229,374.096,356.833,380.492,348.943,380.492z"/>
						</g>
					</g>
				</g>
			</g>
		</g>
		<g>
			<g>
				<polygon style="fill:#FF8B7B;" points="237.698,383.194 231.042,404.553 223.368,404.052 228.991,375.863 				"/>
				<g>
					<path style="fill:#263238;" d="M318.354,301.098c0,0-13.96-0.479-24.262-3.602c0,0-4.277,8.851-7.682,12.114l-1.357,1.301
						c0,0-40.172-9.774-45.668,2.86c-4.685,10.77-16.899,81.56-16.899,81.56h13.673c0,0,9.611-29.895,18.62-51.997
						c0.48-1.177,2.139-7.389,2.139-7.389c6.709,3.061,26.618,10.683,52.205,9.493c3.962-0.185,9.992-8.539,10.072-21.512
						C319.282,309.882,318.354,301.098,318.354,301.098z"/>
				</g>
				<path style="opacity:0.2;" d="M288.163,337.99c-11.238-5.228-26.708-19.25-33.88-24.489c-2.061-1.505-3.949-2.31-5.604-2.712
					c6.331-1.252,14.396-1.029,21.331-0.402l16.354,7.576l26.256,12.267l3.098,9.408c-1.227,5.015-4.406,5.695-7.249,5.828
					c-11.858,0.551-24.619-1.062-32.883-3.153C276.898,342.459,299.015,343.037,288.163,337.99z"/>
				<polygon style="fill:#FF8B7B;" points="208.781,347.404 194.353,361.468 188.941,357.03 200.145,340.812 				"/>
				<g>
					<path style="fill:#263238;" d="M189.99,355.094l6.294,5c0.273,0.217,0.359,0.593,0.207,0.907l-3.365,6.924
						c-0.294,0.616-1.032,0.878-1.648,0.584c-0.079-0.038-0.154-0.084-0.223-0.137c-2.572-2.116-4.777-4.1-8.028-6.673
						c-3.833-3.041-3.224-1.81-7.78-5.323c-2.743-2.119-0.79-5.598,0.481-4.837c5.794,3.519,8.544,3.105,12.072,2.833
						C188.73,354.361,189.437,354.617,189.99,355.094z"/>
				</g>
				<g>
					<path style="fill:#407BFF;" d="M187.431,354.786c0.056,0.024,0.122,0.012,0.166-0.031c0.049-0.048,0.064-0.12,0.037-0.182
						c-0.129-0.312-1.35-3.072-2.277-3.245c-0.178-0.03-0.361,0.032-0.484,0.164l0,0c-0.215,0.207-0.316,0.504-0.27,0.794
						c0.144,0.976,1.816,1.986,2.799,2.497L187.431,354.786z M185.365,351.656c0.505,0.184,1.28,1.547,1.782,2.614
						c-1.318-0.742-2.135-1.494-2.216-2.039c-0.037-0.192,0.032-0.39,0.181-0.522c0.045-0.054,0.116-0.08,0.184-0.067
						L185.365,351.656z"/>
					<path style="fill:#407BFF;" d="M187.431,354.786l0.031,0.024c0.059,0.005,0.118-0.023,0.15-0.073
						c0.045-0.055,1.088-1.583,0.885-2.672c-0.055-0.318-0.24-0.597-0.511-0.775l0,0c-0.37-0.24-0.615-0.149-0.755-0.026
						c-0.611,0.53-0.29,2.665,0.098,3.462C187.353,354.759,187.39,354.78,187.431,354.786z M187.66,351.469l0.129,0.101l0,0
						c0.202,0.127,0.338,0.333,0.376,0.568c0.008,0.774-0.224,1.534-0.665,2.18c-0.322-0.916-0.425-2.489-0.068-2.804
						c0.026-0.02,0.082-0.077,0.212-0.025L187.66,351.469z"/>
				</g>
				<path style="fill:#263238;" d="M301.735,299.108c17.445,3.202,33.492,0.673,33.492,0.673s11.544,44.396-21.424,44.351
					c-12.189-0.017-17.166-5.173-25.001-9.962c-17.842-10.906-32.443-26.843-39.426-25.958
					c-10.051,1.274-4.586,13.276-46.047,45.816l-8.347-7.604c0,0,31.339-68.893,51.95-68.893c17.871,0,46.005,27.518,49.778,27.612
					C300.483,305.235,301.735,299.108,301.735,299.108z"/>
				<path style="opacity:0.2;" d="M243.744,310.688l0.013,0.006c-2.526,1.084-4.436,2.599-5.349,4.696
					c-0.551,1.266-1.056,3.31-1.519,5.929c-1.188,1.65-2.582,3.482-4.237,5.499C233.955,313.397,243.744,310.688,243.744,310.688z"
					/>
				<g>
					<g>
						<path style="fill:#407BFF;" d="M221.012,404.357c0.027-0.057,0.018-0.126-0.024-0.173c-0.047-0.053-0.121-0.072-0.187-0.047
							c-0.329,0.119-3.248,1.256-3.47,2.208c-0.04,0.183,0.016,0.375,0.148,0.51l0,0c0.205,0.233,0.508,0.351,0.81,0.317
							c1.019-0.104,2.144-1.79,2.719-2.785L221.012,404.357z M217.672,406.353c0.214-0.514,1.664-1.255,2.793-1.725
							c-0.831,1.331-1.648,2.144-2.217,2.202c-0.201,0.029-0.403-0.052-0.533-0.212c-0.054-0.049-0.077-0.124-0.061-0.194
							L217.672,406.353z"/>
						<path style="fill:#407BFF;" d="M221.012,404.357l0.026-0.031c0.008-0.061-0.018-0.123-0.069-0.159
							c-0.055-0.049-1.59-1.202-2.728-1.042c-0.332,0.042-0.63,0.22-0.827,0.493l0,0c-0.266,0.373-0.183,0.631-0.062,0.782
							c0.521,0.658,2.749,0.425,3.593,0.06C220.981,404.437,221.005,404.399,221.012,404.357z M217.585,403.965l0.111-0.129l0,0
							c0.141-0.203,0.361-0.335,0.606-0.363c0.802,0.028,1.58,0.304,2.228,0.79c-0.965,0.291-2.6,0.324-2.91-0.06
							c-0.02-0.028-0.076-0.089-0.017-0.221L217.585,403.965z"/>
					</g>
					<g>
						<path style="fill:#263238;" d="M223.307,402.858l8.284-0.973c0.359-0.042,0.699,0.17,0.819,0.511l2.633,7.541
							c0.239,0.667-0.109,1.401-0.776,1.64c-0.086,0.031-0.174,0.052-0.264,0.064c-3.438,0.345-6.512,0.516-10.783,1.025
							c-5.041,0.595-3.691,1.048-9.608,1.83c-3.566,0.468-4.697-3.514-3.207-3.893c6.828-1.689,8.536-4.015,10.917-6.81
							C221.846,403.249,222.553,402.916,223.307,402.858z"/>
					</g>
				</g>
			</g>
			<g>
				<g>
					<g>
						<path style="fill:#FF8B7B;" d="M257.725,217.646c-1.286-0.186-1.419-1.16-2.085-2.276c0,0-1.958-4.482-0.404-5.142
							c0,0,2.305-0.275,4.887-0.174c2.913,0.115,4.321,2.418,4.797,4.062C266.344,219.034,257.725,217.646,257.725,217.646z"/>
					</g>
				</g>
				<path style="fill:#FF8B7B;" d="M256.589,217.04l-5.748-4.405c-0.883-0.677-1.044-1.944-0.359-2.821l1.452-1.857
					c0.573-0.733,1.575-0.974,2.419-0.582l5.769,2.68L256.589,217.04z"/>
				<g>
					<g>
						<polygon style="fill:#FF8B7B;" points="260.527,217.149 265.994,228.355 272.952,227.103 263.623,212.403 						"/>
					</g>
				</g>
				<path style="fill:#407BFF;" d="M304.851,242.258l-3.8,13.18l-16.94-5.43c-11.159-2.889-23.33-28.19-23.33-28.19l7.59-3.05
					l17.36,19.96L304.851,242.258z"/>
			</g>
			<path style="fill:#407BFF;" d="M295.641,278.72c1.736,4.692,2.784,12.925-3.976,23.468c0,0,26.129,3.879,44.635,2.709
				c1.291-7.528-1.904-23.191,4.875-47.329c1.572-5.596-2.05-11.32-7.781-12.294c-1.531-0.26-3.156-0.501-4.822-0.695
				c-6.479-0.756-11.363-2.035-17.114-1.903c-1.906,0.044-3.551-0.642-5.439-0.507c-4.158,0.297-9.244,8.6-11.501,16.645
				C292.677,265.375,293.276,272.329,295.641,278.72z"/>
			<path style="opacity:0.4;fill:#FFFFFF;" d="M295.641,278.72c1.736,4.692,2.784,12.925-3.976,23.468
				c0,0,26.129,3.879,44.635,2.709c1.291-7.528-1.904-23.191,4.875-47.329c1.572-5.596-2.05-11.32-7.781-12.294
				c-1.531-0.26-3.156-0.501-4.822-0.695c-6.479-0.756-11.363-2.035-17.114-1.903c-1.906,0.044-3.551-0.642-5.439-0.507
				c-4.158,0.297-9.244,8.6-11.501,16.645C292.677,265.375,293.276,272.329,295.641,278.72z"/>
			<path style="fill:#407BFF;" d="M301.24,304.159c-4.216,0.08-8.656-1.431-12.356-3.454c2.985-8.394,3.78-17.556,2.284-26.339
				c-0.785-4.609-2.193-9.256-1.462-13.874c1.205-7.613,7.772-13.057,13.879-17.758c1.145-0.882,2.415-0.301,3.835-0.565
				C300.746,257.867,300.746,278.126,301.24,304.159z"/>
			<path style="fill:#407BFF;" d="M339.633,304.5c-0.18,1.42-1.469,2.495-2.849,2.876c-1.379,0.38-2.843,0.207-4.263,0.032
				c-4.799-0.593-9.872-1.418-14.67-2.012c-2.706-20.992-0.35-42.619,6.813-62.537c5.374-0.144,11.228,0.445,14.549,4.673
				c2.614,3.328,2.453,7.981,2.167,12.203C340.366,274.693,341.515,289.626,339.633,304.5z"/>
			<path style="opacity:0.2;" d="M326.27,270.111c2.098-11.086,6.206-20.424,6.206-20.424l0.495,4.451l1.464,1.866
				c-2.436,7.373,10.095,19.643-4.044,36.727c-0.689,0.833-1.834,1.108-2.832,0.693c-5.938-2.469-12.528-10.151-12.528-10.151
				l3.102-7.934C322.323,277.31,325.134,276.114,326.27,270.111z"/>
			<g>
				<polygon style="fill:#FF8B7B;" points="303.404,271.468 311.388,279.366 314.899,273.784 306.286,266.953 				"/>
				<g>
					<g>
						<g>
							<polygon style="fill:#263238;" points="304.077,275.979 280.17,275.979 277.44,244.783 301.348,244.783 							"/>
							<polygon style="opacity:0.5;fill:#FFFFFF;" points="304.077,275.979 280.17,275.979 277.44,244.783 301.348,244.783 							
								"/>
						</g>
						<polygon style="fill:#263238;" points="303.233,275.822 279.326,275.822 276.596,244.625 300.504,244.625 						"/>
						<polygon style="opacity:0.8;fill:#FFFFFF;" points="303.233,275.822 279.326,275.822 276.596,244.625 300.504,244.625 						
							"/>
						<polygon style="fill:#263238;" points="293.748,246.574 283.693,246.574 283.352,242.676 293.407,242.676 						"/>
					</g>
					<g>
						<polygon style="fill:#263238;" points="283.352,242.676 284.343,242.334 294.754,242.334 294.895,243.993 294.121,244.891 
							294.07,246.247 293.748,246.574 293.407,242.676 						"/>
						<polygon style="opacity:0.5;" points="283.352,242.676 284.343,242.334 294.754,242.334 294.895,243.993 294.121,244.891 
							294.07,246.247 293.748,246.574 293.407,242.676 						"/>
					</g>
				</g>
				<path style="fill:#FF8B7B;" d="M295.802,270.646l1.704,1.456c0.641,0.548,1.507,0.751,2.325,0.547l3.822-0.954
					c1.528-0.381,2.633-4.743,2.633-4.743c-1.928-2.319-7.727-2.971-7.727-2.971c-1.194-0.352-2.389,0.262-2.745,1.411l-0.819,2.646
					C294.714,268.953,295.034,269.991,295.802,270.646z"/>
			</g>
			<path style="fill:#407BFF;" d="M341.456,263.027c0.85-4.606,0.972-14-3.889-15.75c-5.686-2.047-7.204,6.54-8.426,14.293
				c-1.222,7.754-3.63,17.402-5.487,16.458c-3.867-1.965-10.648-6.433-10.648-6.433l-4.089,6.336c0,0,14.275,15.209,20.763,11.654
				C336.983,285.583,340.378,268.869,341.456,263.027z"/>
			<g>
				<path style="fill:#FF8B7B;" d="M324.077,231.848c0,0-1.435,5.478,0.121,11.506c0,0-15.653,10.014-15.653-0.292
					c0,0,4.861,1.395,5.273-4.841C314.052,234.675,317.747,231.088,324.077,231.848z"/>
				<path style="opacity:0.2;enable-background:new    ;" d="M313.818,238.221c0.424-3.267,3.441-6.599,8.921-6.465l0.365,0.339
					l0.384,0.712c0,0-3.531,8.979-10.267,7.898C313.456,240.097,313.677,239.307,313.818,238.221z"/>
				<path style="fill:#FF8B7B;" d="M327.656,219.599c-1.216,8.506-1.544,12.132-6.212,16.169c-7.024,6.077-17.203,2.73-18.559-5.968
					c-1.219-7.828,0.967-20.414,9.603-23.144c6.16-1.982,12.761,1.405,14.743,7.565
					C327.788,215.957,327.934,217.798,327.656,219.599z"/>
				<path style="fill:#263238;" d="M321.989,235.21c2.086-0.323,6.463-1.571,8.331-2.656c1.215-3.803,1.639-4.991,2.579-8.467
					c1.732-6.406,0.329-14.518-5.827-16.941c-2.131-0.839-8.718-4.706-11.094-1.306C315.375,206.703,327.455,221.01,321.989,235.21z
					"/>
				<path style="fill:#FF5652;" d="M308.716,224.282c-0.746,1.539-1.7,2.968-2.836,4.246c0.673,0.574,1.566,0.82,2.438,0.673
					L308.716,224.282z"/>
				<path style="fill:#263238;" d="M316.307,219.975c0.059-0.009,0.115-0.032,0.164-0.066c0.149-0.114,0.177-0.328,0.063-0.478
					c-0.001-0.002-0.003-0.003-0.004-0.005c-0.765-1.048-1.993-1.656-3.29-1.632c-0.185,0.021-0.321,0.183-0.31,0.369
					c0.016,0.184,0.175,0.322,0.359,0.311c1.071-0.003,2.078,0.509,2.708,1.375C316.071,219.942,316.189,219.99,316.307,219.975z"/>
				<path style="fill:#263238;" d="M303.69,218.393c0.059-0.009,0.115-0.032,0.164-0.066c0.848-0.646,1.954-0.847,2.975-0.54
					c0.174,0.07,0.373-0.015,0.443-0.189c0.001-0.001,0.001-0.003,0.002-0.004c0.063-0.178-0.026-0.375-0.203-0.443
					c-1.237-0.389-2.586-0.156-3.622,0.624c-0.157,0.104-0.199,0.316-0.095,0.472C303.427,218.356,303.559,218.414,303.69,218.393
					L303.69,218.393z"/>
				<g>
					<path style="fill:#263238;" d="M313.722,223.528c-0.054,0.692-0.469,1.225-0.93,1.192c-0.461-0.033-0.776-0.625-0.714-1.327
						c0.063-0.702,0.469-1.225,0.921-1.191C313.45,222.236,313.775,222.827,313.722,223.528z"/>
					<path style="fill:#263238;" d="M305.853,222.896c-0.054,0.691-0.469,1.225-0.92,1.19c-0.451-0.034-0.776-0.625-0.723-1.326
						c0.053-0.701,0.469-1.224,0.92-1.191C305.582,221.604,305.916,222.194,305.853,222.896z"/>
					<path style="fill:#263238;" d="M305.327,221.623l-1.631-0.613C303.696,221.01,304.453,222.38,305.327,221.623z"/>
					<path style="fill:#263238;" d="M313.195,222.255l-1.631-0.613C311.564,221.643,312.32,223.012,313.195,222.255z"/>
				</g>
				<path style="fill:#263238;" d="M312.739,230.492c0.189-0.208,0.359-0.431,0.51-0.668c0.053-0.074,0.035-0.177-0.038-0.229
					c-0.002-0.001-0.003-0.002-0.005-0.003c-0.081-0.045-0.183-0.02-0.232,0.058c-0.761,1.216-2.054,1.999-3.484,2.111
					c-0.092,0-0.167,0.075-0.167,0.167c0,0.092,0.075,0.167,0.167,0.167C310.743,232.021,311.916,231.443,312.739,230.492z"/>
				<path style="fill:#FF8B7B;" d="M329.134,226.521c-0.602,1.549-1.795,2.795-3.316,3.463c-2.023,0.869-3.326-0.866-3.01-2.93
					c0.283-1.851,1.679-4.542,3.831-4.541c1.566,0.049,2.796,1.358,2.747,2.924C329.374,225.812,329.288,226.18,329.134,226.521z"/>
			</g>
			<path style="fill:#263238;" d="M311.594,204.89c-2.525,0.527-4.831,2.036-6.324,4.139c-1.493,2.103-2.157,4.778-1.821,7.335
				c1.418,0.225,2.852,0.644,4.271,0.869c-0.343-1.627-0.053-3.228,1.02-4.498c-0.257,1.438-0.216,3.527,0.304,4.893
				c1.069,0.12,2.424,0.151,3.493,0.271c0.01-1.723,0.09-2.686,0.1-4.409c0.723,1.711,1.537,3.415,2.26,5.126
				c1.172-0.031,2.351,0.301,3.335,0.939c-0.356-1.663-0.71-3.51-1.066-5.174c2.075,2.433,3.167,5.714,3.198,8.911
				c2.014-3.436,2.285-7.84,0.653-11.473C319.384,208.186,315.493,204.077,311.594,204.89z"/>
			<path style="fill:#407BFF;" d="M323.487,241.293c-2.985,2.002-7.822,5.171-11.108,6.629c0.342,2.282,1.657,5.605,3.656,7.182
				c6.264-4.711,8.189-7.466,10.037-12.262C325.781,241.565,324.574,240.564,323.487,241.293z"/>
			<path style="opacity:0.7;fill:#FFFFFF;" d="M323.487,241.293c-2.985,2.002-7.822,5.171-11.108,6.629
				c0.342,2.282,1.657,5.605,3.656,7.182c6.264-4.711,8.189-7.466,10.037-12.262C325.781,241.565,324.574,240.564,323.487,241.293z"
				/>
			<path style="fill:#407BFF;" d="M307.569,242.297c-2.073,3.501-1.71,7.655-0.051,11.37c1.55-2.002,3.425-3.666,4.975-5.668
				c-2.278-1.983-1.685-3.675-1.316-5.569c-0.716-0.456-2.683-0.448-3.52-0.31c-0.062,0.162-0.125,0.323-0.187,0.485
				C307.644,242.561,307.396,242.34,307.569,242.297z"/>
			<path style="opacity:0.7;fill:#FFFFFF;" d="M307.569,242.297c-2.073,3.501-1.71,7.655-0.051,11.37
				c1.55-2.002,3.425-3.666,4.975-5.668c-2.278-1.983-1.685-3.675-1.316-5.569c-0.716-0.456-2.683-0.448-3.52-0.31
				c-0.062,0.162-0.125,0.323-0.187,0.485C307.644,242.561,307.396,242.34,307.569,242.297z"/>
		</g>
	</g>
</g>
<g id="Assesment">
	<g>
		<g>
			<path style="fill:#407BFF;" d="M359.562,191.16h-22.224c0-18.298-14.835-33.133-33.133-33.133
				c-18.303,0-33.133,14.835-33.133,33.133h-22.224c0-30.574,24.784-55.357,55.357-55.357
				C334.774,135.803,359.562,160.586,359.562,191.16z"/>
			<polygon style="fill:none;" points="304.205,191.16 304.205,191.16 304.205,191.16 			"/>
			<polygon style="fill:none;" points="304.205,191.16 304.205,191.16 304.205,191.16 			"/>
			<rect x="304.205" y="191.16" style="fill:none;" width="0" height="0"/>
			<polygon style="fill:none;" points="304.205,191.16 304.205,191.16 304.205,191.16 			"/>
			<rect x="304.205" y="191.16" style="fill:none;" width="0" height="0"/>
			<polygon style="fill:none;" points="304.205,191.16 304.205,191.16 304.205,191.16 			"/>
			<rect x="304.205" y="191.16" style="fill:none;" width="0" height="0"/>
			<rect x="304.205" y="191.16" style="fill:none;" width="0" height="0"/>
			<polygon style="fill:none;" points="304.205,191.16 304.205,191.16 304.205,191.16 			"/>
			<path style="fill:#407BFF;" d="M332.895,174.596l19.257-11.118c-4.861-8.4-11.865-15.404-20.265-20.265l-11.118,19.257
				C325.796,165.379,329.986,169.568,332.895,174.596z"/>
			<path style="opacity:0.8;fill:#FFFFFF;" d="M256.257,163.477c-4.712,8.143-7.41,17.597-7.41,27.683h22.224
				c0-6.036,1.622-11.69,4.442-16.565L256.257,163.477z"/>
			<path style="opacity:0.2;" d="M337.338,191.16h22.224c0-10.085-2.698-19.539-7.41-27.682l-19.257,11.118
				C335.715,179.47,337.338,185.124,337.338,191.16z"/>
			<path style="opacity:0.6;fill:#FFFFFF;" d="M287.64,162.469l-11.118-19.257c-8.4,4.86-15.405,11.865-20.265,20.265l19.257,11.118
				C278.423,169.568,282.612,165.378,287.64,162.469z"/>
			<path style="opacity:0.4;fill:#FFFFFF;" d="M304.205,158.027L304.205,158.027v-22.224l0,0c-10.085,0-19.539,2.698-27.683,7.41
				l11.118,19.257C292.514,159.649,298.168,158.027,304.205,158.027z"/>
			<path style="opacity:0.2;fill:#FFFFFF;" d="M320.769,162.47l11.118-19.257c-8.144-4.712-17.598-7.41-27.682-7.411v22.224
				C310.241,158.027,315.895,159.649,320.769,162.47z"/>
		</g>
		<g>
			<polygon style="fill:#263238;" points="304.205,188.383 332.665,157.25 335.289,159.546 308.474,192.652 			"/>
			<path style="fill:#263238;" d="M309.321,192.652c0,2.826-2.291,5.116-5.116,5.116c-2.826,0-5.116-2.291-5.116-5.116
				c0-2.826,2.291-5.116,5.116-5.116C307.03,187.536,309.321,189.827,309.321,192.652z"/>
		</g>
	</g>
</g>
<g id="Money">
	<g>
		<g>
			<g>
				<g>
					<path style="fill:#407BFF;" d="M184.37,387.078c0.588,13.271-9.693,24.506-22.963,25.094
						c-13.271,0.588-24.506-9.693-25.094-22.963c-0.588-13.271,9.693-24.506,22.963-25.094
						C172.547,363.527,183.782,373.808,184.37,387.078z"/>
				</g>
				<path style="fill:#407BFF;" d="M187.254,386.951c0.588,13.271-9.693,24.506-22.963,25.094
					c-13.271,0.588-24.506-9.693-25.094-22.963c-0.588-13.271,9.693-24.506,22.964-25.094
					C175.43,363.399,186.665,373.68,187.254,386.951z"/>
				<path style="opacity:0.4;fill:#FFFFFF;" d="M187.254,386.951c0.588,13.271-9.693,24.506-22.963,25.094
					c-13.271,0.588-24.506-9.693-25.094-22.963c-0.588-13.271,9.693-24.506,22.964-25.094
					C175.43,363.399,186.665,373.68,187.254,386.951z"/>
				<path style="fill:#407BFF;" d="M181.206,387.219c0.44,9.931-7.253,18.338-17.184,18.779c-9.931,0.44-18.338-7.253-18.779-17.184
					c-0.44-9.931,7.253-18.339,17.184-18.779C172.359,369.594,180.766,377.288,181.206,387.219z"/>
			</g>
			<g style="opacity:0.3;">
				<path style="fill:#FFFFFF;" d="M171.292,391.492c0.872,3.944-1.743,6.725-6.643,7.36l0.064,3.292l-2.989,0.133l-0.064-3.293
					c-2.899-0.14-5.606-0.918-7.379-1.978l1.189-3.766c1.84,1.087,4.006,1.739,6.115,1.856l-0.092-5.057
					c-2.963-0.707-6.255-1.669-7.048-5.259c-0.872-3.944,1.797-6.757,6.799-7.34l-0.064-3.291l2.989-0.132l0.07,3.323
					c2.168,0.112,4.242,0.621,5.873,1.446l-1.01,3.758c-1.476-0.802-3.142-1.239-4.795-1.345l0.108,5.266
					C167.343,387.145,170.538,388.081,171.292,391.492z M161.393,385.761l-0.077-4.309c-1.631,0.402-2.385,1.363-2.165,2.492
					C159.354,384.864,160.218,385.363,161.393,385.761z M166.62,392.477c-0.19-0.86-0.996-1.364-2.127-1.703l0.091,4.098
					C166.125,394.475,166.869,393.605,166.62,392.477z"/>
			</g>
		</g>
		<g>
			<g>
				<g>
					<g>
						<path style="fill:#407BFF;" d="M99.91,408.366c-0.158,3.731,11.653,7.263,26.382,7.889
							c14.729,0.626,26.797-1.893,26.955-5.623c0.159-3.731-11.652-7.263-26.381-7.889
							C112.137,402.117,100.069,404.635,99.91,408.366z"/>
						
							<rect x="123.341" y="379.428" transform="matrix(0.0424 -0.9991 0.9991 0.0424 -284.4108 515.4927)" style="fill:#407BFF;" width="6.762" height="53.385"/>
					</g>
					<g>
						<path style="fill:#407BFF;" d="M100.198,401.61c-0.159,3.731,11.653,7.264,26.382,7.889
							c14.729,0.625,26.797-1.892,26.955-5.624c0.159-3.731-11.652-7.263-26.381-7.888
							C112.424,395.362,100.356,397.879,100.198,401.61z"/>
						<path style="opacity:0.4;fill:#FFFFFF;" d="M100.198,401.61c-0.159,3.731,11.653,7.264,26.382,7.889
							c14.729,0.625,26.797-1.892,26.955-5.624c0.159-3.731-11.652-7.263-26.381-7.888
							C112.424,395.362,100.356,397.879,100.198,401.61z"/>
					</g>
					<g>
						<path style="fill:#407BFF;" d="M103.6,401.494c-0.009,0.218,0.075,0.484,0.227,0.665c1.784-2.194,11.535-3.482,23.187-2.987
							c11.686,0.497,21.292,2.607,22.851,4.943c0.166-0.168,0.273-0.425,0.282-0.643c0.107-2.527-10.215-5.059-23.078-5.606
							C114.239,397.32,103.707,398.968,103.6,401.494z"/>
						<path style="opacity:0.4;fill:#407BFF;" d="M103.6,401.494c-0.009,0.218,0.075,0.484,0.227,0.665
							c1.784-2.194,11.535-3.482,23.187-2.987c11.686,0.497,21.292,2.607,22.851,4.943c0.166-0.168,0.273-0.425,0.282-0.643
							c0.107-2.527-10.215-5.059-23.078-5.606C114.239,397.32,103.707,398.968,103.6,401.494z"/>
					</g>
					<g>
						<path style="opacity:0.4;fill:#407BFF;" d="M103.826,402.159c1.591,2.337,11.198,4.447,22.851,4.942
							c11.685,0.496,21.436-0.791,23.187-2.986c-1.559-2.336-11.165-4.446-22.851-4.943
							C115.361,398.677,105.61,399.965,103.826,402.159z"/>
					</g>
				</g>
				<g>
					<g>
						<path style="fill:#407BFF;" d="M94.306,398.137c-0.158,3.731,11.653,7.263,26.382,7.889
							c14.729,0.625,26.797-1.893,26.956-5.623c0.158-3.731-11.653-7.263-26.381-7.889
							C106.533,391.888,94.465,394.406,94.306,398.137z"/>
						
							<rect x="117.737" y="369.199" transform="matrix(0.0424 -0.9991 0.9991 0.0424 -279.551 500.1226)" style="fill:#407BFF;" width="6.762" height="53.385"/>
					</g>
					<g>
						<path style="fill:#407BFF;" d="M94.593,391.381c-0.158,3.731,11.653,7.263,26.382,7.889
							c14.729,0.625,26.797-1.892,26.955-5.624c0.159-3.731-11.652-7.263-26.381-7.888C106.82,385.132,94.752,387.65,94.593,391.381
							z"/>
						<path style="opacity:0.4;fill:#FFFFFF;" d="M94.593,391.381c-0.158,3.731,11.653,7.263,26.382,7.889
							c14.729,0.625,26.797-1.892,26.955-5.624c0.159-3.731-11.652-7.263-26.381-7.888C106.82,385.132,94.752,387.65,94.593,391.381
							z"/>
					</g>
					<g>
						<path style="fill:#407BFF;" d="M97.995,391.265c-0.009,0.218,0.075,0.483,0.227,0.664c1.783-2.193,11.535-3.482,23.187-2.986
							c11.686,0.496,21.292,2.607,22.851,4.943c0.167-0.168,0.273-0.425,0.282-0.643c0.107-2.526-10.215-5.059-23.077-5.606
							C108.635,387.091,98.103,388.738,97.995,391.265z"/>
						<path style="opacity:0.4;fill:#407BFF;" d="M97.995,391.265c-0.009,0.218,0.075,0.483,0.227,0.664
							c1.783-2.193,11.535-3.482,23.187-2.986c11.686,0.496,21.292,2.607,22.851,4.943c0.167-0.168,0.273-0.425,0.282-0.643
							c0.107-2.526-10.215-5.059-23.077-5.606C108.635,387.091,98.103,388.738,97.995,391.265z"/>
					</g>
					<g>
						<path style="opacity:0.4;fill:#407BFF;" d="M98.223,391.929c1.591,2.337,11.198,4.447,22.85,4.942
							c11.685,0.497,21.436-0.791,23.187-2.986c-1.559-2.336-11.165-4.447-22.851-4.943
							C109.757,388.448,100.006,389.736,98.223,391.929z"/>
					</g>
				</g>
				<g>
					<g>
						<path style="fill:#407BFF;" d="M95.032,385.815c-0.158,3.73,11.653,7.262,26.381,7.888
							c14.729,0.625,26.797-1.892,26.956-5.623c0.158-3.731-11.652-7.263-26.381-7.889
							C107.259,379.566,95.191,382.084,95.032,385.815z"/>
						
							<rect x="118.463" y="356.877" transform="matrix(0.0424 -0.9991 0.9991 0.0424 -266.5477 489.0361)" style="fill:#407BFF;" width="6.762" height="53.385"/>
					</g>
					<g>
						<path style="fill:#407BFF;" d="M95.319,379.059c-0.158,3.731,11.653,7.264,26.382,7.889
							c14.729,0.625,26.797-1.892,26.955-5.624c0.159-3.731-11.652-7.263-26.381-7.888
							C107.546,372.81,95.478,375.327,95.319,379.059z"/>
						<path style="opacity:0.4;fill:#FFFFFF;" d="M95.319,379.059c-0.158,3.731,11.653,7.264,26.382,7.889
							c14.729,0.625,26.797-1.892,26.955-5.624c0.159-3.731-11.652-7.263-26.381-7.888
							C107.546,372.81,95.478,375.327,95.319,379.059z"/>
					</g>
					<g>
						<path style="fill:#407BFF;" d="M98.721,378.943c-0.009,0.218,0.075,0.483,0.227,0.664c1.784-2.193,11.535-3.482,23.187-2.987
							c11.686,0.496,21.292,2.607,22.851,4.943c0.166-0.168,0.273-0.425,0.282-0.643c0.107-2.527-10.214-5.059-23.077-5.606
							C109.361,374.769,98.829,376.416,98.721,378.943z"/>
						<path style="opacity:0.4;fill:#407BFF;" d="M98.721,378.943c-0.009,0.218,0.075,0.483,0.227,0.664
							c1.784-2.193,11.535-3.482,23.187-2.987c11.686,0.496,21.292,2.607,22.851,4.943c0.166-0.168,0.273-0.425,0.282-0.643
							c0.107-2.527-10.214-5.059-23.077-5.606C109.361,374.769,98.829,376.416,98.721,378.943z"/>
					</g>
					<g>
						<path style="opacity:0.4;fill:#407BFF;" d="M98.948,379.607c1.591,2.337,11.198,4.447,22.85,4.942
							c11.685,0.496,21.436-0.792,23.188-2.986c-1.559-2.336-11.165-4.447-22.851-4.943
							C110.483,376.125,100.732,377.414,98.948,379.607z"/>
					</g>
				</g>
				<g>
					<g>
						<path style="fill:#407BFF;" d="M89.428,375.585c-0.159,3.731,11.653,7.263,26.381,7.889
							c14.729,0.626,26.797-1.893,26.955-5.623c0.159-3.731-11.653-7.263-26.381-7.889
							C101.655,369.336,89.587,371.854,89.428,375.585z"/>
						
							<rect x="112.859" y="346.648" transform="matrix(0.0425 -0.9991 0.9991 0.0425 -261.6986 473.6246)" style="fill:#407BFF;" width="6.762" height="53.385"/>
					</g>
					<g>
						<path style="fill:#407BFF;" d="M89.715,368.829c-0.159,3.731,11.653,7.263,26.382,7.889
							c14.729,0.625,26.796-1.892,26.955-5.623c0.158-3.731-11.653-7.263-26.381-7.888
							C101.942,362.581,89.874,365.098,89.715,368.829z"/>
						<path style="opacity:0.4;fill:#FFFFFF;" d="M89.715,368.829c-0.159,3.731,11.653,7.263,26.382,7.889
							c14.729,0.625,26.796-1.892,26.955-5.623c0.158-3.731-11.653-7.263-26.381-7.888
							C101.942,362.581,89.874,365.098,89.715,368.829z"/>
					</g>
					<g>
						<path style="fill:#407BFF;" d="M93.117,368.713c-0.009,0.218,0.075,0.484,0.227,0.664c1.784-2.193,11.535-3.482,23.187-2.986
							c11.686,0.496,21.292,2.607,22.851,4.943c0.166-0.168,0.273-0.425,0.282-0.643c0.107-2.526-10.215-5.059-23.078-5.605
							C103.757,364.54,93.225,366.187,93.117,368.713z"/>
						<path style="opacity:0.4;fill:#407BFF;" d="M93.117,368.713c-0.009,0.218,0.075,0.484,0.227,0.664
							c1.784-2.193,11.535-3.482,23.187-2.986c11.686,0.496,21.292,2.607,22.851,4.943c0.166-0.168,0.273-0.425,0.282-0.643
							c0.107-2.526-10.215-5.059-23.078-5.605C103.757,364.54,93.225,366.187,93.117,368.713z"/>
					</g>
					<g>
						<path style="opacity:0.4;fill:#407BFF;" d="M93.344,369.378c1.591,2.337,11.198,4.447,22.851,4.942
							c11.685,0.496,21.436-0.791,23.188-2.986c-1.56-2.336-11.166-4.446-22.851-4.943
							C104.879,365.896,95.128,367.184,93.344,369.378z"/>
					</g>
				</g>
				<g>
					<g>
						<path style="fill:#407BFF;" d="M97.985,366.916c-0.158,3.73,11.653,7.262,26.382,7.888
							c14.729,0.625,26.797-1.892,26.955-5.623c0.158-3.731-11.653-7.263-26.381-7.889
							C110.212,360.667,98.144,363.185,97.985,366.916z"/>
						
							<rect x="121.416" y="337.978" transform="matrix(0.0424 -0.9991 0.9991 0.0424 -244.8361 473.8942)" style="fill:#407BFF;" width="6.762" height="53.385"/>
					</g>
					<g>
						<path style="fill:#407BFF;" d="M98.272,360.159c-0.159,3.731,11.653,7.264,26.382,7.889
							c14.729,0.625,26.797-1.892,26.955-5.624c0.159-3.731-11.652-7.263-26.381-7.888
							C110.499,353.911,98.431,356.428,98.272,360.159z"/>
						<path style="opacity:0.4;fill:#FFFFFF;" d="M98.272,360.159c-0.159,3.731,11.653,7.264,26.382,7.889
							c14.729,0.625,26.797-1.892,26.955-5.624c0.159-3.731-11.652-7.263-26.381-7.888
							C110.499,353.911,98.431,356.428,98.272,360.159z"/>
					</g>
					<g>
						<path style="fill:#407BFF;" d="M101.674,360.043c-0.009,0.219,0.075,0.483,0.227,0.665c1.784-2.194,11.535-3.482,23.187-2.987
							c11.686,0.496,21.292,2.607,22.851,4.943c0.167-0.168,0.273-0.425,0.282-0.643c0.107-2.526-10.215-5.059-23.078-5.605
							C112.314,355.87,101.782,357.517,101.674,360.043z"/>
						<path style="opacity:0.4;fill:#407BFF;" d="M101.674,360.043c-0.009,0.219,0.075,0.483,0.227,0.665
							c1.784-2.194,11.535-3.482,23.187-2.987c11.686,0.496,21.292,2.607,22.851,4.943c0.167-0.168,0.273-0.425,0.282-0.643
							c0.107-2.526-10.215-5.059-23.078-5.605C112.314,355.87,101.782,357.517,101.674,360.043z"/>
					</g>
					<g>
						<path style="opacity:0.4;fill:#407BFF;" d="M101.901,360.708c1.591,2.337,11.198,4.447,22.85,4.942
							c11.685,0.496,21.436-0.792,23.188-2.986c-1.559-2.336-11.165-4.446-22.851-4.943
							C113.436,357.226,103.685,358.514,101.901,360.708z"/>
					</g>
				</g>
				<g>
					<g>
						<path style="fill:#407BFF;" d="M92.381,356.686c-0.159,3.73,11.653,7.263,26.382,7.888
							c14.729,0.626,26.797-1.893,26.955-5.623c0.159-3.731-11.653-7.263-26.381-7.889
							C104.608,350.437,92.54,352.955,92.381,356.686z"/>
						
							<rect x="115.812" y="327.749" transform="matrix(0.0424 -0.9991 0.9991 0.0424 -239.9873 458.4835)" style="fill:#407BFF;" width="6.762" height="53.385"/>
					</g>
					<g>
						<path style="fill:#407BFF;" d="M92.668,349.93c-0.159,3.731,11.653,7.263,26.382,7.889
							c14.729,0.625,26.797-1.892,26.955-5.624c0.158-3.731-11.653-7.263-26.381-7.889
							C104.895,343.681,92.827,346.199,92.668,349.93z"/>
						<path style="opacity:0.4;fill:#FFFFFF;" d="M92.668,349.93c-0.159,3.731,11.653,7.263,26.382,7.889
							c14.729,0.625,26.797-1.892,26.955-5.624c0.158-3.731-11.653-7.263-26.381-7.889
							C104.895,343.681,92.827,346.199,92.668,349.93z"/>
					</g>
					<g>
						<path style="fill:#407BFF;" d="M96.071,349.814c-0.009,0.219,0.075,0.483,0.227,0.664c1.784-2.193,11.535-3.482,23.187-2.986
							c11.686,0.496,21.292,2.607,22.851,4.943c0.166-0.168,0.273-0.425,0.282-0.643c0.107-2.527-10.215-5.059-23.078-5.606
							C106.71,345.641,96.178,347.288,96.071,349.814z"/>
						<path style="opacity:0.4;fill:#407BFF;" d="M96.071,349.814c-0.009,0.219,0.075,0.483,0.227,0.664
							c1.784-2.193,11.535-3.482,23.187-2.986c11.686,0.496,21.292,2.607,22.851,4.943c0.166-0.168,0.273-0.425,0.282-0.643
							c0.107-2.527-10.215-5.059-23.078-5.606C106.71,345.641,96.178,347.288,96.071,349.814z"/>
					</g>
					<g>
						<path style="opacity:0.4;fill:#407BFF;" d="M96.297,350.478c1.591,2.337,11.198,4.447,22.851,4.942
							c11.685,0.496,21.436-0.792,23.188-2.986c-1.56-2.336-11.166-4.446-22.851-4.943
							C107.832,346.997,98.081,348.285,96.297,350.478z"/>
					</g>
				</g>
			</g>
			<g>
				<g>
					<g>
						<path style="fill:#407BFF;" d="M151.299,349.424c0.158,3.731-11.653,7.263-26.381,7.889
							c-14.729,0.625-26.797-1.893-26.955-5.623c-0.159-3.731,11.652-7.264,26.381-7.889
							C139.072,343.176,151.141,345.694,151.299,349.424z"/>
						
							<rect x="97.795" y="343.798" transform="matrix(0.9991 -0.0424 0.0424 0.9991 -14.6223 5.5961)" style="fill:#407BFF;" width="53.385" height="6.762"/>
					</g>
					<g>
						<path style="fill:#407BFF;" d="M151.012,342.668c0.159,3.731-11.653,7.264-26.382,7.889
							c-14.729,0.625-26.797-1.892-26.955-5.624c-0.159-3.731,11.653-7.263,26.381-7.888
							C138.786,336.42,150.854,338.937,151.012,342.668z"/>
						<path style="opacity:0.4;fill:#FFFFFF;" d="M151.012,342.668c0.159,3.731-11.653,7.264-26.382,7.889
							c-14.729,0.625-26.797-1.892-26.955-5.624c-0.159-3.731,11.653-7.263,26.381-7.888
							C138.786,336.42,150.854,338.937,151.012,342.668z"/>
					</g>
					<g>
						<path style="fill:#407BFF;" d="M147.61,342.552c0.01,0.219-0.075,0.484-0.227,0.665c-1.784-2.194-11.535-3.482-23.187-2.987
							c-11.686,0.496-21.292,2.607-22.851,4.943c-0.166-0.168-0.273-0.425-0.282-0.644c-0.107-2.526,10.215-5.059,23.078-5.606
							C136.971,338.379,147.503,340.026,147.61,342.552z"/>
						<path style="opacity:0.4;fill:#407BFF;" d="M147.61,342.552c0.01,0.219-0.075,0.484-0.227,0.665
							c-1.784-2.194-11.535-3.482-23.187-2.987c-11.686,0.496-21.292,2.607-22.851,4.943c-0.166-0.168-0.273-0.425-0.282-0.644
							c-0.107-2.526,10.215-5.059,23.078-5.606C136.971,338.379,147.503,340.026,147.61,342.552z"/>
					</g>
					<g>
						<path style="opacity:0.4;fill:#407BFF;" d="M147.383,343.217c-1.591,2.337-11.198,4.447-22.851,4.942
							c-11.685,0.496-21.436-0.792-23.188-2.986c1.56-2.336,11.166-4.446,22.851-4.943
							C135.849,339.735,145.6,341.023,147.383,343.217z"/>
					</g>
				</g>
				<g>
					<g>
						<path style="fill:#407BFF;" d="M156.904,339.195c0.158,3.731-11.653,7.262-26.382,7.889
							c-14.729,0.625-26.797-1.893-26.956-5.623c-0.158-3.731,11.653-7.263,26.381-7.889
							C144.676,332.946,156.745,335.464,156.904,339.195z"/>
						
							<rect x="103.399" y="333.569" transform="matrix(0.9991 -0.0424 0.0424 0.9991 -14.164 5.8164)" style="fill:#407BFF;" width="53.385" height="6.762"/>
					</g>
					<g>
						<path style="fill:#407BFF;" d="M156.617,332.439c0.158,3.731-11.653,7.263-26.382,7.889
							c-14.729,0.626-26.797-1.892-26.955-5.623c-0.159-3.731,11.652-7.263,26.381-7.889
							C144.39,326.191,156.458,328.708,156.617,332.439z"/>
						<path style="opacity:0.4;fill:#FFFFFF;" d="M156.617,332.439c0.158,3.731-11.653,7.263-26.382,7.889
							c-14.729,0.626-26.797-1.892-26.955-5.623c-0.159-3.731,11.652-7.263,26.381-7.889
							C144.39,326.191,156.458,328.708,156.617,332.439z"/>
					</g>
					<g>
						<path style="fill:#407BFF;" d="M153.214,332.323c0.009,0.218-0.075,0.483-0.227,0.664c-1.784-2.194-11.535-3.482-23.187-2.987
							c-11.686,0.496-21.292,2.607-22.851,4.943c-0.166-0.168-0.273-0.425-0.282-0.643c-0.107-2.526,10.215-5.059,23.077-5.605
							C142.575,328.15,153.107,329.797,153.214,332.323z"/>
						<path style="opacity:0.4;fill:#407BFF;" d="M153.214,332.323c0.009,0.218-0.075,0.483-0.227,0.664
							c-1.784-2.194-11.535-3.482-23.187-2.987c-11.686,0.496-21.292,2.607-22.851,4.943c-0.166-0.168-0.273-0.425-0.282-0.643
							c-0.107-2.526,10.215-5.059,23.077-5.605C142.575,328.15,153.107,329.797,153.214,332.323z"/>
					</g>
					<g>
						<path style="opacity:0.4;fill:#407BFF;" d="M152.987,332.988c-1.591,2.337-11.198,4.447-22.85,4.942
							c-11.685,0.496-21.436-0.791-23.188-2.986c1.559-2.336,11.165-4.447,22.851-4.943
							C141.453,329.506,151.204,330.794,152.987,332.988z"/>
					</g>
				</g>
				<g>
					<g>
						<path style="fill:#407BFF;" d="M156.178,326.873c0.158,3.731-11.653,7.263-26.381,7.888
							c-14.729,0.625-26.797-1.892-26.956-5.623c-0.158-3.731,11.653-7.263,26.381-7.889
							C143.951,320.624,156.019,323.142,156.178,326.873z"/>
						
							<rect x="102.673" y="321.246" transform="matrix(0.9991 -0.0424 0.0424 0.9991 -13.6518 5.7788)" style="fill:#407BFF;" width="53.385" height="6.762"/>
					</g>
					<g>
						<path style="fill:#407BFF;" d="M155.891,320.117c0.158,3.731-11.653,7.263-26.382,7.889
							c-14.728,0.625-26.797-1.892-26.955-5.624c-0.159-3.731,11.652-7.263,26.381-7.888
							C143.664,313.868,155.732,316.386,155.891,320.117z"/>
						<path style="opacity:0.4;fill:#FFFFFF;" d="M155.891,320.117c0.158,3.731-11.653,7.263-26.382,7.889
							c-14.728,0.625-26.797-1.892-26.955-5.624c-0.159-3.731,11.652-7.263,26.381-7.888
							C143.664,313.868,155.732,316.386,155.891,320.117z"/>
					</g>
					<g>
						<path style="fill:#407BFF;" d="M152.488,320.001c0.01,0.218-0.075,0.483-0.227,0.664c-1.784-2.194-11.535-3.482-23.187-2.987
							c-11.686,0.496-21.292,2.607-22.851,4.943c-0.166-0.168-0.273-0.425-0.282-0.643c-0.107-2.527,10.214-5.059,23.077-5.606
							C141.849,315.827,152.381,317.474,152.488,320.001z"/>
						<path style="opacity:0.4;fill:#407BFF;" d="M152.488,320.001c0.01,0.218-0.075,0.483-0.227,0.664
							c-1.784-2.194-11.535-3.482-23.187-2.987c-11.686,0.496-21.292,2.607-22.851,4.943c-0.166-0.168-0.273-0.425-0.282-0.643
							c-0.107-2.527,10.214-5.059,23.077-5.606C141.849,315.827,152.381,317.474,152.488,320.001z"/>
					</g>
					<g>
						<path style="opacity:0.4;fill:#407BFF;" d="M152.262,320.665c-1.591,2.337-11.198,4.447-22.85,4.942
							c-11.685,0.496-21.436-0.792-23.188-2.986c1.559-2.336,11.165-4.447,22.851-4.943
							C140.727,317.183,150.478,318.472,152.262,320.665z"/>
					</g>
				</g>
				<g>
					<g>
						<path style="fill:#407BFF;" d="M161.782,316.644c0.158,3.73-11.653,7.263-26.381,7.889
							c-14.729,0.626-26.797-1.893-26.955-5.623c-0.159-3.731,11.653-7.264,26.381-7.889
							C149.555,310.395,161.623,312.913,161.782,316.644z"/>
						
							<rect x="108.277" y="311.017" transform="matrix(0.9991 -0.0425 0.0425 0.9991 -13.2262 6.0137)" style="fill:#407BFF;" width="53.385" height="6.762"/>
					</g>
					<g>
						<path style="fill:#407BFF;" d="M161.495,309.888c0.159,3.731-11.653,7.263-26.382,7.889
							c-14.729,0.626-26.796-1.892-26.955-5.624c-0.158-3.731,11.653-7.263,26.381-7.888
							C149.268,303.639,161.336,306.156,161.495,309.888z"/>
						<path style="opacity:0.4;fill:#FFFFFF;" d="M161.495,309.888c0.159,3.731-11.653,7.263-26.382,7.889
							c-14.729,0.626-26.796-1.892-26.955-5.624c-0.158-3.731,11.653-7.263,26.381-7.888
							C149.268,303.639,161.336,306.156,161.495,309.888z"/>
					</g>
					<g>
						<path style="fill:#407BFF;" d="M158.092,309.772c0.009,0.219-0.075,0.484-0.227,0.664c-1.783-2.194-11.535-3.482-23.187-2.987
							c-11.686,0.497-21.292,2.607-22.851,4.943c-0.166-0.168-0.273-0.425-0.282-0.644c-0.107-2.526,10.215-5.059,23.078-5.606
							C147.453,305.598,157.985,307.245,158.092,309.772z"/>
						<path style="opacity:0.4;fill:#407BFF;" d="M158.092,309.772c0.009,0.219-0.075,0.484-0.227,0.664
							c-1.783-2.194-11.535-3.482-23.187-2.987c-11.686,0.497-21.292,2.607-22.851,4.943c-0.166-0.168-0.273-0.425-0.282-0.644
							c-0.107-2.526,10.215-5.059,23.078-5.606C147.453,305.598,157.985,307.245,158.092,309.772z"/>
					</g>
					<g>
						<path style="opacity:0.4;fill:#407BFF;" d="M157.866,310.436c-1.591,2.337-11.198,4.447-22.851,4.942
							c-11.685,0.496-21.436-0.792-23.188-2.986c1.56-2.336,11.166-4.446,22.851-4.943
							C146.331,306.954,156.082,308.242,157.866,310.436z"/>
					</g>
				</g>
				<g>
					<g>
						<path style="fill:#407BFF;" d="M153.225,307.974c0.158,3.73-11.653,7.263-26.382,7.888
							c-14.729,0.625-26.797-1.892-26.956-5.623c-0.158-3.731,11.653-7.263,26.381-7.889
							C140.998,301.725,153.066,304.243,153.225,307.974z"/>
						
							<rect x="99.72" y="302.347" transform="matrix(0.9991 -0.0424 0.0424 0.9991 -12.8481 5.6343)" style="fill:#407BFF;" width="53.385" height="6.763"/>
					</g>
					<g>
						<path style="fill:#407BFF;" d="M152.938,301.217c0.158,3.731-11.653,7.264-26.382,7.889
							c-14.729,0.625-26.797-1.892-26.955-5.624c-0.159-3.731,11.653-7.263,26.381-7.888
							C140.711,294.969,152.779,297.487,152.938,301.217z"/>
						<path style="opacity:0.4;fill:#FFFFFF;" d="M152.938,301.217c0.158,3.731-11.653,7.264-26.382,7.889
							c-14.729,0.625-26.797-1.892-26.955-5.624c-0.159-3.731,11.653-7.263,26.381-7.888
							C140.711,294.969,152.779,297.487,152.938,301.217z"/>
					</g>
					<g>
						<path style="fill:#407BFF;" d="M149.535,301.102c0.009,0.219-0.075,0.484-0.227,0.665c-1.783-2.194-11.535-3.482-23.187-2.987
							c-11.686,0.497-21.292,2.607-22.851,4.943c-0.167-0.168-0.273-0.425-0.282-0.643c-0.107-2.527,10.215-5.059,23.078-5.606
							C138.896,296.928,149.428,298.575,149.535,301.102z"/>
						<path style="opacity:0.4;fill:#407BFF;" d="M149.535,301.102c0.009,0.219-0.075,0.484-0.227,0.665
							c-1.783-2.194-11.535-3.482-23.187-2.987c-11.686,0.497-21.292,2.607-22.851,4.943c-0.167-0.168-0.273-0.425-0.282-0.643
							c-0.107-2.527,10.215-5.059,23.078-5.606C138.896,296.928,149.428,298.575,149.535,301.102z"/>
					</g>
					<g>
						<path style="opacity:0.4;fill:#407BFF;" d="M149.308,301.766c-1.591,2.337-11.198,4.447-22.85,4.942
							c-11.685,0.496-21.436-0.792-23.188-2.986c1.559-2.336,11.165-4.446,22.851-4.943
							C137.774,298.284,147.525,299.573,149.308,301.766z"/>
					</g>
				</g>
				<g>
					<g>
						<path style="fill:#407BFF;" d="M158.829,297.745c0.159,3.73-11.653,7.263-26.382,7.889
							c-14.729,0.625-26.797-1.893-26.955-5.623c-0.159-3.731,11.653-7.264,26.381-7.889
							C146.602,291.496,158.67,294.013,158.829,297.745z"/>
						
							<rect x="105.324" y="292.118" transform="matrix(0.9991 -0.0424 0.0424 0.9991 -12.4222 5.8691)" style="fill:#407BFF;" width="53.385" height="6.762"/>
					</g>
					<g>
						<path style="fill:#407BFF;" d="M158.542,290.988c0.159,3.731-11.653,7.263-26.382,7.889
							c-14.729,0.626-26.797-1.892-26.955-5.623c-0.159-3.731,11.652-7.263,26.381-7.889
							C146.315,284.74,158.383,287.257,158.542,290.988z"/>
						<path style="opacity:0.4;fill:#FFFFFF;" d="M158.542,290.988c0.159,3.731-11.653,7.263-26.382,7.889
							c-14.729,0.626-26.797-1.892-26.955-5.623c-0.159-3.731,11.652-7.263,26.381-7.889
							C146.315,284.74,158.383,287.257,158.542,290.988z"/>
					</g>
					<g>
						<path style="fill:#407BFF;" d="M155.139,290.873c0.009,0.219-0.075,0.483-0.227,0.664c-1.784-2.193-11.535-3.482-23.187-2.987
							c-11.686,0.496-21.291,2.607-22.851,4.943c-0.166-0.168-0.273-0.425-0.282-0.643c-0.107-2.527,10.215-5.059,23.078-5.606
							C144.5,286.699,155.032,288.346,155.139,290.873z"/>
						<path style="opacity:0.4;fill:#407BFF;" d="M155.139,290.873c0.009,0.219-0.075,0.483-0.227,0.664
							c-1.784-2.193-11.535-3.482-23.187-2.987c-11.686,0.496-21.291,2.607-22.851,4.943c-0.166-0.168-0.273-0.425-0.282-0.643
							c-0.107-2.527,10.215-5.059,23.078-5.606C144.5,286.699,155.032,288.346,155.139,290.873z"/>
					</g>
					<g>
						<path style="opacity:0.4;fill:#407BFF;" d="M154.913,291.537c-1.591,2.337-11.198,4.447-22.851,4.942
							c-11.685,0.496-21.436-0.792-23.188-2.986c1.56-2.336,11.165-4.447,22.851-4.943
							C143.378,288.055,153.129,289.343,154.913,291.537z"/>
					</g>
				</g>
			</g>
		</g>
	</g>
</g>
<g id="Profile">
	<g>
		<g>
			<g>
				<g>
					<polygon style="fill:#407BFF;" points="219.064,254.647 87.7,254.647 78.152,72.45 209.516,72.45 					"/>
				</g>
				<g style="opacity:0.6;">
					<polygon style="fill:#FFFFFF;" points="219.064,254.647 87.7,254.647 78.152,72.45 209.516,72.45 					"/>
				</g>
			</g>
			<g>
				<g>
					<path style="fill:#263238;" d="M152.473,193.885H99.436c-0.693,0-1.225,0.561-1.188,1.254v0
						c0.036,0.692,0.627,1.254,1.32,1.254h53.037c0.693,0,1.225-0.561,1.188-1.254v0
						C153.756,194.447,153.165,193.885,152.473,193.885z"/>
				</g>
				<g>
					<path style="fill:#263238;" d="M139.009,184.251H98.931c-0.693,0-1.225,0.561-1.188,1.254l0,0
						c0.036,0.693,0.627,1.254,1.32,1.254h40.078c0.693,0,1.225-0.562,1.188-1.254l0,0
						C140.293,184.813,139.702,184.251,139.009,184.251z"/>
				</g>
			</g>
			<g>
				<g>
					<path style="fill:#263238;" d="M153.689,217.1h-53.037c-0.693,0-1.225,0.561-1.188,1.254l0,0
						c0.036,0.693,0.627,1.254,1.32,1.254h53.037c0.693,0,1.225-0.561,1.188-1.254l0,0C154.973,217.661,154.382,217.1,153.689,217.1
						z"/>
				</g>
				<g>
					<path style="fill:#263238;" d="M140.226,207.466h-40.078c-0.692,0-1.224,0.561-1.188,1.254l0,0
						c0.036,0.692,0.627,1.254,1.32,1.254h40.078c0.693,0,1.225-0.561,1.188-1.254l0,0
						C141.509,208.027,140.918,207.466,140.226,207.466z"/>
				</g>
			</g>
			<g>
				<g>
					<path style="fill:#263238;" d="M154.906,240.314h-53.037c-0.693,0-1.225,0.561-1.188,1.254l0,0
						c0.036,0.693,0.627,1.254,1.32,1.254h53.037c0.693,0,1.225-0.561,1.188-1.254l0,0
						C156.189,240.875,155.598,240.314,154.906,240.314z"/>
				</g>
				<g>
					<path style="fill:#263238;" d="M141.443,230.68h-40.078c-0.692,0-1.224,0.561-1.188,1.254l0,0
						c0.036,0.693,0.627,1.254,1.32,1.254h40.078c0.693,0,1.225-0.561,1.188-1.254l0,0
						C142.726,231.242,142.135,230.68,141.443,230.68z"/>
				</g>
			</g>
			<g>
				<g>
					<path style="fill:#407BFF;" d="M201.822,194.567h-9.634c-0.376,0-0.698-0.305-0.717-0.682l-0.505-9.634
						c-0.02-0.377,0.269-0.681,0.646-0.681h9.634c0.376,0,0.698,0.305,0.717,0.681l0.505,9.634
						C202.488,194.262,202.199,194.567,201.822,194.567z M192.799,193.204h8.271l-0.433-8.27h-8.271L192.799,193.204z"/>
				</g>
				<g>
					<path style="fill:#407BFF;" d="M203.105,219.035h-9.634c-0.376,0-0.697-0.305-0.717-0.682l-0.505-9.634
						c-0.02-0.377,0.27-0.682,0.646-0.682h9.634c0.376,0,0.698,0.305,0.717,0.682l0.505,9.634
						C203.77,218.73,203.481,219.035,203.105,219.035z M194.081,217.672h8.271l-0.434-8.271h-8.271L194.081,217.672z"/>
				</g>
				<g>
					<path style="fill:#407BFF;" d="M204.321,242.249h-9.634c-0.376,0-0.697-0.305-0.717-0.682l-0.505-9.634
						c-0.02-0.377,0.27-0.682,0.646-0.682h9.634c0.376,0,0.697,0.305,0.717,0.682l0.505,9.634
						C204.987,241.944,204.698,242.249,204.321,242.249z M195.298,240.886h8.271l-0.433-8.27h-8.271L195.298,240.886z"/>
				</g>
			</g>
			<g>
				<polygon style="fill:#FFFFFF;" points="173.825,153.367 129.382,153.367 126.717,102.514 171.16,102.514 				"/>
			</g>
			<g>
				<path style="fill:#407BFF;" d="M196.869,192.01c-0.011,0-0.022,0-0.033-0.001c-0.386-0.009-0.758-0.181-1.025-0.473
					l-2.631-2.882c-0.521-0.571-0.501-1.432,0.044-1.922c0.545-0.491,1.409-0.427,1.93,0.144l1.587,1.738l5.983-6.679
					c0.489-0.546,1.351-0.57,1.924-0.051c0.574,0.518,0.642,1.38,0.152,1.927l-6.964,7.774
					C197.593,191.856,197.243,192.01,196.869,192.01z"/>
			</g>
			<g>
				<path style="fill:#407BFF;" d="M198.149,216.432c-0.011,0-0.022,0-0.033-0.001c-0.386-0.009-0.758-0.181-1.025-0.473
					l-2.631-2.881c-0.521-0.57-0.501-1.432,0.043-1.922c0.545-0.491,1.409-0.427,1.93,0.144l1.586,1.738l5.984-6.679
					c0.489-0.546,1.351-0.57,1.924-0.051c0.574,0.518,0.642,1.38,0.152,1.927l-6.964,7.774
					C198.873,216.279,198.523,216.432,198.149,216.432z"/>
			</g>
			<g>
				<path style="fill:#407BFF;" d="M199.385,240.003c-0.011,0-0.022,0-0.033-0.001c-0.386-0.009-0.758-0.181-1.025-0.473
					l-2.631-2.881c-0.521-0.57-0.501-1.432,0.043-1.922c0.545-0.491,1.409-0.427,1.93,0.144l1.586,1.738l5.984-6.678
					c0.489-0.546,1.351-0.57,1.924-0.051c0.574,0.518,0.642,1.381,0.152,1.927l-6.964,7.773
					C200.108,239.85,199.758,240.003,199.385,240.003z"/>
			</g>
			<g>
				<path style="fill:#263238;" d="M172.916,159.959h-41.935c-0.693,0-1.225,0.561-1.188,1.254l0,0
					c0.036,0.693,0.627,1.254,1.32,1.254h41.935c0.693,0,1.225-0.561,1.188-1.254l0,0C174.2,160.52,173.609,159.959,172.916,159.959
					z"/>
			</g>
			<g>
				<path style="fill:#263238;" d="M151.133,168.328H131.42c-0.692,0-1.224,0.561-1.188,1.254v0c0.036,0.692,0.627,1.254,1.32,1.254
					h19.714c0.693,0,1.225-0.561,1.188-1.254v0C152.417,168.89,151.826,168.328,151.133,168.328z"/>
			</g>
			<g>
				<path style="fill:#263238;" d="M174.541,85.044h-53.037c-0.693,0-1.225,0.562-1.188,1.254l0,0
					c0.036,0.693,0.627,1.254,1.32,1.254h53.037c0.693,0,1.225-0.561,1.188-1.254l0,0C175.824,85.606,175.234,85.044,174.541,85.044
					z"/>
			</g>
		</g>
		
			<ellipse transform="matrix(0.6978 -0.7163 0.7163 0.6978 -45.8724 146.1325)" style="fill:#407BFF;" cx="150.244" cy="127.429" rx="8.835" ry="9.31"/>
		<path style="fill:#407BFF;" d="M168.159,153.368h-33.117c-0.337-9.037,6.649-16.31,15.707-16.31c4.573,0,8.814,1.854,11.963,4.853
			C165.811,144.856,167.863,148.89,168.159,153.368z"/>
	</g>
</g>
</svg>
